<?xml version="1.0" encoding="UTF-8"?>
<svg xmlns="http://www.w3.org/2000/svg" xmlns:xlink="http://www.w3.org/1999/xlink" width="128pt" height="128pt" viewBox="0 0 128 128" version="1.1">
<defs>
<clipPath id="clip1">
  <path d="M 0 0 L 128 0 L 128 128 L 0 128 Z M 0 0 "/>
</clipPath>
<linearGradient id="linear0" gradientUnits="userSpaceOnUse" x1="0" y1="1" x2="0" y2="0" gradientTransform="matrix(128,0,0,128,0,0)">
<stop offset="0" style="stop-color:rgb(49.803922%,67.45098%,89.019608%);stop-opacity:1;"/>
<stop offset="1" style="stop-color:rgb(100%,100%,100%);stop-opacity:1;"/>
</linearGradient>
<linearGradient id="linear1" gradientUnits="userSpaceOnUse" x1="0" y1="1" x2="0" y2="0" gradientTransform="matrix(128,0,0,128,0,0)">
<stop offset="0" style="stop-color:rgb(75.686275%,85.098039%,100%);stop-opacity:1;"/>
<stop offset="0.8" style="stop-color:rgb(100%,100%,100%);stop-opacity:1;"/>
</linearGradient>
</defs>
<g id="surface0">
<g clip-path="url(#clip1)" clip-rule="nonzero">
<path style=" stroke:none;fill-rule:nonzero;fill:url(#linear0);" d="M 128 64 C 128 99.347656 99.347656 128 64 128 C 28.652344 128 0 99.347656 0 64 C 0 28.652344 28.652344 0 64 0 C 99.347656 0 128 28.652344 128 64 "/>
<path style="fill:none;stroke-width:0.0625;stroke-linecap:butt;stroke-linejoin:miter;stroke:rgb(10.196078%,31.372549%,50.980392%);stroke-opacity:1;stroke-miterlimit:10;" d="M 0.862488 0.5 C 0.862488 0.700195 0.700195 0.862488 0.5 0.862488 C 0.299805 0.862488 0.137512 0.700195 0.137512 0.5 C 0.137512 0.299805 0.299805 0.137512 0.5 0.137512 C 0.700195 0.137512 0.862488 0.299805 0.862488 0.5 " transform="matrix(128,0,0,128,0,0)"/>
<path style=" stroke:none;fill-rule:nonzero;fill:url(#linear1);" d="M 110.398438 64 C 110.398438 89.625 89.625 110.398438 64 110.398438 C 38.375 110.398438 17.601562 89.625 17.601562 64 C 17.601562 38.375 38.375 17.601562 64 17.601562 C 89.625 17.601562 110.398438 38.375 110.398438 64 "/>
<path style="fill:none;stroke-width:0.03125;stroke-linecap:butt;stroke-linejoin:miter;stroke:rgb(11.372549%,27.843137%,41.960784%);stroke-opacity:1;stroke-miterlimit:10;" d="M -0.299988 0 C -0.299988 -0.0828552 -0.232849 -0.149994 -0.149994 -0.149994 C -0.0671692 -0.149994 0 -0.0828552 0 0 " transform="matrix(128,0,0,128,64,64)"/>
<path style="fill:none;stroke-width:0.03125;stroke-linecap:butt;stroke-linejoin:miter;stroke:rgb(11.372549%,27.843137%,41.960784%);stroke-opacity:1;stroke-miterlimit:10;" d="M 0.299988 0 C 0.299988 0.0828552 0.232849 0.149994 0.149994 0.149994 C 0.0671692 0.149994 0 0.0828552 0 0 " transform="matrix(128,0,0,128,64,64)"/>
</g>
</g>
</svg>
